<?xml version="1.0" ?>
<!DOCTYPE svg  PUBLIC '-//W3C//DTD SVG 1.1//EN'  'http://www.w3.org/Graphics/SVG/1.1/DTD/svg11.dtd'>
<svg fill='#ffffff' style="enable-background:new 0 0 32 32;" version="1.1" viewBox="0 0 25 25" xml:space="preserve" xmlns="http://www.w3.org/2000/svg" xmlns:xlink="http://www.w3.org/1999/xlink">
  <defs>
    <style>
      .cls-1 {
        clip-path: url(#clip-path);
      }

      .cls-2 {
        clip-path: url(#clip-path-2);
      }

      .cls-3 {
        clip-path: url(#clip-path-3);
      }

      .cls-4 {
        clip-path: url(#clip-path-5);
      }

      .cls-5 {
        clip-path: url(#clip-path-7);
      }

      .cls-6 {
        clip-path: url(#clip-path-8);
      }

      .cls-7 {
        clip-path: url(#clip-path-9);
      }
    </style>
    <clipPath id="clip-path">
      <rect x="3.52" y="6.67" width="18" height="2"/>
    </clipPath>
    <clipPath id="clip-path-2">
      <rect x="-11.48" y="-73.33" width="375" height="667"/>
    </clipPath>
    <clipPath id="clip-path-3">
      <rect x="3.52" y="11.67" width="18" height="2"/>
    </clipPath>
    <clipPath id="clip-path-5">
      <rect x="3.52" y="16.67" width="18" height="2"/>
    </clipPath>
    <clipPath id="clip-path-7">
      <rect x="11.09" y="0.18" width="2.76" height="24.87" transform="translate(-5.27 12.51) rotate(-45)"/>
    </clipPath>
    <clipPath id="clip-path-8">
      <rect x="-338.53" y="-74.38" width="375" height="667"/>
    </clipPath>
    <clipPath id="clip-path-9">
      <rect x="0.13" y="11.33" width="24.87" height="2.76" transform="translate(-5.31 12.61) rotate(-45)"/>
    </clipPath>
  </defs>  
  <g>
    <g>
      <rect x="11.09" y="0.18" width="2.76" height="24.87" transform="translate(-5.27 12.51) rotate(-45)"/>
      <g class="cls-5">
        <g>
          <rect x="-338.53" y="-74.38" width="375" height="667"/>
          <g class="cls-6">
            <rect x="6.09" y="-4.82" width="12.76" height="34.87" transform="translate(-5.27 12.51) rotate(-45)"/>
          </g>
        </g>
      </g>
    </g>
    <g>
      <rect x="0.13" y="11.33" width="24.87" height="2.76" transform="translate(-5.31 12.61) rotate(-45)"/>
      <g class="cls-7">
        <g>
          <rect x="-338.53" y="-74.38" width="375" height="667"/>
          <g class="cls-6">
            <rect x="-4.87" y="6.33" width="34.87" height="12.76" transform="translate(-5.31 12.61) rotate(-45)"/>
          </g>
        </g>
      </g>
    </g>
  </g>
</svg>