<?xml version="1.0" encoding="utf-8"?>
<!-- Generator: Adobe Illustrator 18.1.1, SVG Export Plug-In . SVG Version: 6.00 Build 0)  -->
<svg version="1.1" id="search-icon" xmlns="http://www.w3.org/2000/svg" xmlns:xlink="http://www.w3.org/1999/xlink" x="0px" y="0px" width="68.7px" height="68.7px" viewBox="0 0 68.7 68.7" enable-background="new 0 0 68.7 68.7" xml:space="preserve">
  <defs>
    <style type="text/css">
      <![CDATA[
        svg g#main g {
          display: none;
        }
        svg g#main g:target,
        svg g#main g:target g {
          display: inherit;
        }
      ]]>
    </style>
  </defs>
  <g id="main">
    <g id="white">
      <g>
        <path fill="white" d="M68.7,65.5L47.4,44.2c3.9-4.7,6.3-10.7,6.3-17.3C53.7,12,41.7,0,26.9,0C12,0,0,12,0,26.9c0,14.8,12,26.9,26.9,26.9 c6.6,0,12.6-2.4,17.3-6.3l21.3,21.3L68.7,65.5z M4.6,26.9c0-12.3,10-22.3,22.3-22.3c12.3,0,22.3,10,22.3,22.3 c0,12.3-10,22.3-22.3,22.3C14.6,49.1,4.6,39.1,4.6,26.9z"/>
      </g>
    </g>
    <g id="gray">
      <g>
        <path fill="#8E8E8E" d="M68.7,65.5L47.4,44.2c3.9-4.7,6.3-10.7,6.3-17.3C53.7,12,41.7,0,26.9,0C12,0,0,12,0,26.9c0,14.8,12,26.9,26.9,26.9 c6.6,0,12.6-2.4,17.3-6.3l21.3,21.3L68.7,65.5z M4.6,26.9c0-12.3,10-22.3,22.3-22.3c12.3,0,22.3,10,22.3,22.3 c0,12.3-10,22.3-22.3,22.3C14.6,49.1,4.6,39.1,4.6,26.9z"/>
      </g>
    </g>
  </g>
</svg>
